<svg xmlns="http://www.w3.org/2000/svg" viewBox="0 0 500 500"><g id="freepik--background-complete--inject-8"><path d="M259.193,451.529l-9.519-146.242,.322-.023,10.81,146.152c-.538,.04-1.075,.077-1.613,.113Zm-29.538-.101l-1.405-.109,11.687-146.084,.528,.04-10.81,146.152Zm60.902-4.382l-31.974-143.021,.694-.156,32.48,142.906-1.199,.27Zm-91.832-.231l-1.38-.318,33.301-142.718,.51,.117-32.432,142.918Zm121.642-8.754l-52.638-136.771,.384-.149,53.68,136.365c-.473,.187-.948,.372-1.425,.555Zm-151.613-.46l-1.315-.52,54.279-136.128,.495,.196-53.46,136.453Zm180.018-13.012l-72.71-127.242,.488-.281,73.411,126.839-1.19,.683Zm-208.307-.613c-.435-.251-.87-.505-1.303-.759l74.286-126.328,.376,.219-73.359,126.868Zm234.095-16.743l-90.543-115.235,.281-.223,91.497,114.48c-.41,.328-.822,.654-1.235,.979Zm-259.868-.835c-.455-.363-.909-.727-1.361-1.094l92.495-113.674,.151,.121-91.285,114.648Zm283.003-20.341l-106.807-100.347,.339-.363,107.454,99.655-.985,1.055Zm-305.952-.929l-.919-.995,107.869-99.204,.396,.428-107.345,99.771Zm325.516-23.223l-120.323-83.666,.178-.259,121.067,82.584c-.305,.448-.612,.894-.922,1.341Zm-345.008-1.155c-.29-.423-.578-.848-.863-1.273l121.569-81.841,.223,.328-120.928,82.786Zm361.001-26.055l-131.679-64.328,.3-.614,131.93,63.809-.551,1.134Zm-376.699-1.029c-.225-.465-.448-.93-.669-1.397l132.44-62.746,.165,.345-131.936,63.797Zm388.287-27.893l-139.702-44.275,.106-.342,140.071,43.099c-.156,.506-.314,1.012-.474,1.518Zm-399.788-1.32c-.146-.474-.291-.948-.434-1.422l140.335-42.231,.132,.432-140.033,43.22Zm406.996-29.384l-144.816-22.479,.081-.536,144.946,21.633-.211,1.382Zm-413.965-1.133c-.075-.496-.147-.992-.218-1.488l145.069-20.786,.063,.429-144.914,21.845Zm416.473-29.729l-146.545-1.301v-.605h146.552v.286c0,.541-.002,1.081-.007,1.62Zm-272.262-1.477H35.743l.003-1.35,146.549,.76v.59Zm125.053-9.373l-.046-.309,144.881-22.056c.082,.536,.161,1.072,.238,1.61l-145.074,20.756Zm-124.359-.218l-144.981-21.391c.075-.507,.152-1.014,.23-1.519l144.812,22.512-.06,.398Zm122.403-8.635l-.205-.669,140.014-43.281,.364,1.186-140.173,42.764Zm-120.364-.381L44.94,181.083l.43-1.384,139.807,43.945-.148,.477Zm116.999-8.378l-.252-.526,131.894-63.883,.586,1.217-132.228,63.192Zm-113.616-.282L56.398,151.828l.592-1.221,131.678,64.328-.257,.528Zm109.01-7.82l-.375-.552,120.927-82.786,.715,1.049-121.267,82.289Zm-104.278-.383L72.01,124.775c.284-.416,.568-.832,.855-1.245l120.524,83.374-.244,.355Zm98.215-7.291l-.185-.199,107.238-99.887c.379,.407,.756,.815,1.131,1.225l-108.183,98.861Zm-92.328-.092L91.479,100.329c.341-.368,.684-.736,1.028-1.102l106.82,100.333-.294,.315Zm85.509-6.284l-.323-.259,91.285-114.648c.398,.316,.796,.635,1.192,.956l-92.153,113.951Zm-78.579-.158L114.334,79.06c.41-.329,.821-.655,1.235-.981l90.676,115.13-.282,.224Zm70.9-5.148l-.423-.246,73.197-126.962,1.256,.73-74.031,126.478Zm-63.15-.156L140.139,61.384c.434-.252,.869-.502,1.305-.751l72.639,127.282-.371,.214Zm54.668-3.992l-.383-.152,53.386-136.481c.477,.187,.952,.374,1.425,.564l-54.428,136.069Zm-46.226-.091L168.286,47.755c.481-.19,.963-.378,1.446-.564l52.782,136.715-.36,.141Zm37.367-2.687l-.385-.088,32.18-142.974c.503,.113,1.005,.228,1.505,.345l-33.3,142.717Zm-28.528-.048L198.308,38.452c.509-.116,1.019-.231,1.53-.344l31.517,143.122-.362,.082Zm19.225-1.387l-.412-.031,10.595-146.168c.507,.037,1.015,.075,1.521,.116l-11.704,146.082Zm-9.935-.015l-11.041-146.135c.506-.038,1.013-.074,1.52-.109l9.935,146.214-.414,.029Z" style="fill:#f0f0f0;"></path><g><path d="M366.706,193.906l15.972,29.496s10.162,.83,9.694,8.299-7.141,7.009-11.797,5.347c0,0-3.644,6.017-8.055,2.668-4.411-3.349-1.158-12.784-1.158-12.784l-16.565-28.684,11.909-4.342Z" style="fill:#f5f5f5;"></path><path d="M364.074,157.85l-.248-1.767-.664-4.732s2.055-3.786,2.771-5.492c.715-1.707,1.476-5.574,1.476-5.574l-.02-4.896s-1.627-3.231-1.828-4.032c-1.025-4.084-2.244-5.354-2.519-6.394-1.314-4.978,2.793-6.573-2.339-9.062-5.133-2.49-8.191-.88-9.083-2.483-.892-1.602-6.514-7.215-6.514-7.215l-4.085,.514-5.244-3.063-8.769-5.657-5.646-1.543-2.925,1.102-4.51,3.114-4.735,4.955s-3.373,4.784-4.311,5.343c-.938,.559-3.842,6.557-3.842,6.557,0,0,.752,8.097,.864,8.666,.113,.568-4.622,5.523-4.622,5.523l-3.354,12.668,3.255,6.595,2.208,3.592s.244,3.055,.265,4.963c.021,1.908,.486,9.099,.486,9.099,0,0,4.73,4.01,6.069,4.919,1.339,.909,3.637,3.168,4.462,5.023,.825,1.856,3.301,4.435,3.301,4.435,0,0,3.749,.753,6.137,1.678,2.388,.924,10.556,2.885,10.556,2.885,0,0,4.038,4.636,4.975,4.077,.938-.559,2.478-.409,3.705-.074,1.227,.336,4.039,1.648,4.91,1.342,.871-.305,5.288,3.891,5.288,3.891l5.756,5.106s1.226,3.324,1.427,2.564c.201-.76,7.568-1.735,7.769-2.496,.201-.76,4.157-9.732,4.157-9.732l-3.097-11.171,1.476-5.574s2.333-3.468,2.257-4.546c-.332-4.71-1.938-7.594-1.938-7.594l-3.324-3.354" style="fill:#ebebeb;"></path><path d="M321.96,140.151s3.519,.962,3.919,1.071l2.094-7.907-3.437,1.234-2.576,5.601Z" style="fill:#e0e0e0;"></path><path d="M318.226,136.427s.431-1.829,.48-2.037l-3.858-.936,.633,1.747,2.744,1.225Z" style="fill:#e0e0e0;"></path><path d="M318.437,97.555l-4.51,3.114-4.735,4.955s-3.373,4.784-4.311,5.343c-.938,.559-3.842,6.557-3.842,6.557,0,0,.752,8.097,.864,8.665,.113,.568-4.622,5.523-4.622,5.523l-3.355,12.668,3.255,6.596,2.208,3.592s.244,3.055,.265,4.963c.021,1.908,.486,9.099,.486,9.099,0,0,4.73,4.01,6.069,4.919,1.339,.909,3.637,3.168,4.462,5.023,.825,1.856,3.301,4.435,3.301,4.435,0,0,3.75,.753,6.137,1.678,2.388,.924,10.556,2.885,10.556,2.885,0,0,4.038,4.636,4.975,4.077,.938-.559,2.478-.409,3.705-.074,1.227,.335,4.039,1.648,4.91,1.342,.871-.305,5.288,3.891,5.288,3.891l3.251,2.884c.194-1.307,.312-2.27,.312-2.27,.33-2.255-3.165-4.371-3.517-5.374-.352-1.003-4.804-1.681-6.322-1.777-1.518-.096-2.355-1.6-2.483-3.449-.128-1.849-1.178-4.881-2.015-6.384-.837-1.503-4.319-1.181-4.319-1.181l-3.192-3.103s-6.098-2.623-6.805-3.453-.939-6.949-.939-6.949l-.363-6.791-5.183-1.417-2.276-1.897s-3.428-2.212-5.939-6.722l2.937-8.757-2.049-4.065-4.542-6.022c.105-1.564,2.203-8.32,2.518-9.509s9.178-1.315,9.178-1.315l.067-7.948-.023-5.742,9.167-7.57-5.646-1.543-2.925,1.102Z" style="fill:#e0e0e0;"></path><path d="M346.549,110.696c.023,.754,3.643,6.228,3.643,6.228l8.104,2.215-.495,7.339-1.819-4.982-7.531-2.557-1.902-8.244Z" style="fill:#fff; opacity:.3;"></path></g><g><path d="M104.366,223.041l2.368-7.225,6.579-6.645,2.013-6.142,3.826-4.347,1.562-4.764,1.873-5.713-4.721-6.348-3.145-3.832-1.251-4.259-3.363-4.855,2.682-16.725,6.573-7.848s5.514-3.394,5.869-4.478l5.863-5.68,9.257-.166,8.871-5.094,9.032,2.961,4.809-.024s8.777,.076,10.34,.189c1.563,.112,8.777,.076,8.777,.076,3.962-1.102,7.86,8.978,7.86,8.978l.877,7.089c-1.048,6.858-4.855,14.812-4.855,14.812l-4.293,6.995-5.289,.267-10.228-1.752-4.797,2.428-6.852,.155-2.902-3.352-6.001,2.034,4.285,15.408,.048,9.618-5.473,6.934-4.47,.21-1.646,7.462-8.765,2.328-5.987,4.839-7.775,7.854-8.386,6.053c-3.613-1.184-4.821-2.38-3.163-7.438Z" style="fill:#ebebeb;"></path><path d="M126.527,164.022l-.822-4.649s-1.699-1.496-1.375-2.484c.324-.989,1.204-3.672,1.204-3.672l2.789-1.588,2.754,.903,1.528-4.661-2.521,3.396-2.852-.935c-2.218,2.088-4.276,4.073-4.276,4.073l-.023,4.841,1.558,1.929,2.038,2.847Z" style="fill:#fff; opacity:.2;"></path><path d="M119.79,212.707l-.593-3.354s-1.226-1.079-.992-1.792c.234-.713,.868-2.649,.868-2.649l2.012-1.146,1.987,.651,1.102-3.363-1.819,2.451-2.058-.675c-1.6,1.507-3.085,2.938-3.085,2.938l-.016,3.493,1.124,1.392,1.471,2.055Z" style="fill:#fff; opacity:.2;"></path><path d="M190.361,143.702c.085,.69-4.078,1.088-5.77,.762-1.692-.326-1.328,1.854-1.023,2.641,.305,.787-1.864,3.969-1.864,3.969-.478,.76,.021,4.129-1.762,5.376-1.783,1.248-1.786,.559-2.752,.014-.966-.546-3.319-3.149-3.319-3.149l-3.369,.499-4.539,.573-1.491,4.549-4.475-.322s-.335,1.722-3.274,5.797c-1.273,1.765-4.403,.16-5.091,.163-.688,.003-1.525-2.332-1.525-2.332l-4.136-1.356-3.815,.811s-.852,1.553-1.762,5.376l2.73,2.498-1.84,3.519s-1.084,3.309-1.423,4.342-.664,4.82-.664,4.82l1.365,3.195,.26,5.123-3.31,4.182,.369,4.79-2.877,2.861-5.327,2.605,.156,3.715-2.668,3.248-3.301,.292-3.42,4.146c-.203,.62-2.942,3.387-2.942,3.387l-1.967,1.987c-1.146,1.157-1.842,2.683-1.973,4.307l-.003,.038,2.358-1.702,7.776-7.853,5.987-4.839,8.765-2.328,1.646-7.462,4.47-.21,5.473-6.934-.048-9.618-4.285-15.408,6.001-2.034,2.902,3.352,6.852-.155,4.797-2.428,10.228,1.752,5.289-.267,4.293-6.995s3.807-7.954,4.855-14.812l-.555-4.486Z" style="fill:#e0e0e0;"></path></g><g><g><g><path d="M443.92,306.09h-180.746c-3.232,0-5.862-2.63-5.862-5.862V36.954c0-3.232,2.63-5.862,5.862-5.862h180.746c3.232,0,5.862,2.629,5.862,5.862V300.228c0,3.233-2.63,5.862-5.862,5.862ZM263.174,31.343c-3.095,0-5.612,2.518-5.612,5.612V300.228c0,3.095,2.518,5.612,5.612,5.612h180.746c3.095,0,5.612-2.517,5.612-5.612V36.954c0-3.094-2.518-5.612-5.612-5.612h-180.746Z" style="fill:#e0e0e0;"></path><path d="M235.493,306.09H54.746c-3.232,0-5.862-2.63-5.862-5.862V36.954c0-3.232,2.629-5.862,5.862-5.862H235.493c3.232,0,5.862,2.629,5.862,5.862V300.228c0,3.233-2.63,5.862-5.862,5.862ZM54.746,31.343c-3.094,0-5.612,2.518-5.612,5.612V300.228c0,3.095,2.518,5.612,5.612,5.612H235.493c3.095,0,5.612-2.517,5.612-5.612V36.954c0-3.094-2.518-5.612-5.612-5.612H54.746Z" style="fill:#e0e0e0;"></path></g><rect x="0" y="367.159" width="500" height=".25" style="fill:#e0e0e0;"></rect></g><rect x="51.672" y="381.424" width="16.06" height=".25" style="fill:#e0e0e0;"></rect><rect x="170.352" y="378.714" width="53.53" height=".25" style="fill:#e0e0e0;"></rect><rect x="68.732" y="390.714" width="36.25" height=".25" style="fill:#e0e0e0;"></rect><rect x="378.352" y="378.584" width="43.19" height=".25" style="fill:#e0e0e0;"></rect><rect x="430.452" y="378.584" width="6.33" height=".25" style="fill:#e0e0e0;"></rect><rect x="316.212" y="384.814" width="53.89" height=".25" style="fill:#e0e0e0;"></rect></g><polygon points="65.029 171.649 68.526 186.814 83.692 190.312 68.526 193.81 65.029 208.975 61.531 193.81 46.365 190.312 61.531 186.814 65.029 171.649" style="fill:#f0f0f0;"></polygon><polygon points="403.649 251.575 407.147 266.74 422.312 270.238 407.147 273.736 403.649 288.901 400.151 273.736 384.986 270.238 400.151 266.74 403.649 251.575" style="fill:#f0f0f0;"></polygon><polygon points="252.226 79.138 253.648 85.299 259.809 86.721 253.648 88.142 252.226 94.303 250.805 88.142 244.644 86.721 250.805 85.299 252.226 79.138" style="fill:#e6e6e6;"></polygon><polygon points="408.968 180.546 410.389 186.708 416.551 188.129 410.389 189.55 408.968 195.712 407.547 189.55 401.386 188.129 407.547 186.708 408.968 180.546" style="fill:#e6e6e6;"></polygon><polygon points="302.099 163.131 302.943 166.789 306.601 167.632 302.943 168.476 302.099 172.134 301.256 168.476 297.597 167.632 301.256 166.789 302.099 163.131" style="fill:#e6e6e6;"></polygon><polygon points="378.067 84.403 379.799 91.912 387.308 93.644 379.799 95.376 378.067 102.885 376.335 95.376 368.826 93.644 376.335 91.912 378.067 84.403" style="fill:#e6e6e6;"></polygon><polygon points="99.537 256.643 100.38 260.301 104.039 261.145 100.38 261.988 99.537 265.647 98.693 261.988 95.035 261.145 98.693 260.301 99.537 256.643" style="fill:#e6e6e6;"></polygon><polygon points="160.289 72.593 161.317 77.051 165.775 78.079 161.317 79.107 160.289 83.565 159.261 79.107 154.803 78.079 159.261 77.051 160.289 72.593" style="fill:#e6e6e6;"></polygon></g><g id="freepik--Shadow--inject-8"><path d="M454.59,420.155c0,26.568-92.946,48.106-207.602,48.106s-207.602-21.538-207.602-48.106,92.946-48.106,207.602-48.106,207.602,21.538,207.602,48.106Z" style="fill:#f5f5f5;"></path></g><g id="freepik--Soda_1--inject-8"><g><g><rect x="227.694" y="95.899" width="12.328" height="129.216" style="fill:#D2D6EB;"></rect><polyline points="227.694 160.507 240.022 149.158 240.022 130.767 227.694 141.495 227.694 159.273" style="fill:#fff; opacity:.8;"></polyline><polyline points="227.694 196.118 240.022 184.769 240.022 166.378 227.694 177.106 227.694 194.884" style="fill:#fff; opacity:.8;"></polyline><polyline points="227.694 126.891 240.022 115.542 240.022 97.151 227.694 107.879 227.694 125.657" style="fill:#fff; opacity:.8;"></polyline></g><polygon points="230.587 195.766 225.094 195.766 159.889 195.766 166.958 265.47 172.008 275.026 181.603 380.708 186.653 386.329 186.653 392.513 225.094 392.513 230.587 392.513 269.028 392.513 269.028 386.329 274.078 380.708 283.672 275.026 288.722 265.47 295.792 195.766 230.587 195.766" style="fill:#D2D6EB;"></polygon><polygon points="230.587 195.766 225.094 195.766 159.889 195.766 166.958 265.47 172.008 275.026 181.603 380.708 186.653 386.329 186.653 392.513 225.094 392.513 230.587 392.513 269.028 392.513 269.028 386.329 274.078 380.708 283.672 275.026 288.722 265.47 295.792 195.766 230.587 195.766" style="fill:#fff; opacity:.6;"></polygon><polygon points="154.838 198.972 158.054 191.575 296.233 191.575 300.637 198.972 154.838 198.972" style="fill:#263238;"></polygon><polygon points="154.838 198.972 158.054 191.575 296.233 191.575 300.637 198.972 154.838 198.972" style="fill:#fff; opacity:.6;"></polygon><path d="M163.158,192.187c-.031,2-.708,3.788-2.022,5.297,.026-2.002,.713-3.786,2.022-5.297h0Z" style="fill:#263238;"></path><path d="M168.698,192.187c-.031,2-.708,3.788-2.022,5.297,.026-2.002,.713-3.786,2.022-5.297h0Z" style="fill:#263238;"></path><path d="M174.237,192.187c-.031,2-.708,3.788-2.022,5.297,.026-2.001,.712-3.786,2.022-5.297h0Z" style="fill:#263238;"></path><path d="M179.777,192.187c-.031,2-.708,3.788-2.022,5.297,.026-2.002,.713-3.786,2.022-5.297h0Z" style="fill:#263238;"></path><path d="M185.317,192.187c-.031,2-.708,3.788-2.022,5.297,.026-2.001,.713-3.786,2.022-5.297h0Z" style="fill:#263238;"></path><path d="M190.856,192.187c-.031,2-.708,3.788-2.022,5.297,.026-2.002,.713-3.786,2.022-5.297h0Z" style="fill:#263238;"></path><path d="M196.396,192.187c-.031,2-.708,3.788-2.022,5.297,.026-2.001,.713-3.786,2.022-5.297h0Z" style="fill:#263238;"></path><path d="M201.936,192.187c-.031,2-.708,3.788-2.022,5.297,.026-2.002,.713-3.786,2.022-5.297h0Z" style="fill:#263238;"></path><path d="M207.475,192.187c-.031,2-.708,3.788-2.022,5.297,.026-2.002,.713-3.786,2.022-5.297h0Z" style="fill:#263238;"></path><path d="M213.015,192.187c-.031,2-.708,3.788-2.022,5.297,.026-2.002,.713-3.786,2.022-5.297h0Z" style="fill:#263238;"></path><path d="M218.554,192.187c-.031,2-.708,3.788-2.022,5.297,.026-2.002,.713-3.786,2.022-5.297h0Z" style="fill:#263238;"></path><path d="M224.094,192.187c-.031,2-.708,3.788-2.022,5.297,.026-2.002,.713-3.786,2.022-5.297h0Z" style="fill:#263238;"></path><path d="M229.182,192.057c.3,1.978-.072,3.853-1.119,5.559-.305-1.978,.077-3.851,1.119-5.559h0Z" style="fill:#263238;"></path><path d="M234.466,192.017c.479,1.942,.279,3.843-.608,5.638-.484-1.942-.274-3.842,.608-5.638h0Z" style="fill:#263238;"></path><path d="M294.859,192.187c1.249,1.534,1.867,3.318,1.817,5.297-1.254-1.532-1.862-3.32-1.817-5.297h0Z" style="fill:#263238;"></path><path d="M289.883,192.187c1.249,1.534,1.867,3.318,1.817,5.297-1.254-1.532-1.862-3.32-1.817-5.297h0Z" style="fill:#263238;"></path><path d="M284.907,192.187c1.249,1.534,1.867,3.318,1.817,5.297-1.254-1.532-1.862-3.32-1.817-5.297h0Z" style="fill:#263238;"></path><path d="M279.93,192.187c1.249,1.534,1.867,3.318,1.817,5.297-1.254-1.532-1.862-3.32-1.817-5.297h0Z" style="fill:#263238;"></path><path d="M274.954,192.187c1.249,1.534,1.867,3.318,1.817,5.297-1.254-1.532-1.862-3.32-1.817-5.297h0Z" style="fill:#263238;"></path><path d="M269.977,192.187c1.249,1.534,1.867,3.318,1.817,5.297-1.254-1.532-1.862-3.32-1.817-5.297h0Z" style="fill:#263238;"></path><path d="M265.001,192.187c1.249,1.534,1.867,3.318,1.817,5.297-1.254-1.532-1.862-3.32-1.817-5.297h0Z" style="fill:#263238;"></path><path d="M255.048,192.187c1.249,1.534,1.867,3.318,1.817,5.297-1.254-1.532-1.862-3.32-1.817-5.297h0Z" style="fill:#263238;"></path><path d="M260.849,192.187c1.31,1.512,1.996,3.296,2.022,5.297-1.315-1.51-1.991-3.297-2.022-5.297h0Z" style="fill:#263238;"></path><path d="M249.77,192.187c1.31,1.512,1.996,3.296,2.023,5.297-1.315-1.51-1.991-3.297-2.023-5.297h0Z" style="fill:#263238;"></path><path d="M244.23,192.187c1.31,1.512,1.996,3.296,2.022,5.297-1.314-1.51-1.991-3.297-2.022-5.297h0Z" style="fill:#263238;"></path><path d="M239.186,192.048c1.015,1.724,1.367,3.603,1.031,5.576-1.02-1.722-1.362-3.603-1.031-5.576h0Z" style="fill:#263238;"></path><polygon points="160.617 203.284 160.214 198.972 295.467 198.972 294.893 204.265 160.617 203.284" style="opacity:.3;"></polygon><path d="M166.077,212.159s17.949-2.369,44.183-2.747c26.234-.379,79.623,0,79.623,0l-97.712,30.219-26.094-27.472Z" style="fill:#D2D6EB;"></path><path d="M166.077,212.159s17.949-2.369,44.183-2.747c26.234-.379,79.623,0,79.623,0l-97.712,30.219-26.094-27.472Z" style="opacity:.2;"></path><path d="M190.578,386.702v-3.252l-5.234-5.826-9.532-104.997-5.064-9.583-4.672-50.887c25.757,29.092,72.016-2.747,123.806-2.747l-6.093,53.634-5.064,9.583-9.532,104.997-5.234,5.826v3.252h-73.382Z" style="fill:#D2D6EB;"></path><polygon points="166.958 265.47 288.722 265.47 283.672 275.026 172.008 275.026 166.958 265.47" style="opacity:.3;"></polygon><g><path d="M223.119,276.103c-5.312-2.584-10.404-5.143-15.179-7.666-.826-.437-1.643-.872-2.45-1.306-4.448-2.394-8.592-4.754-12.35-7.069-2.228-1.192-3.068-3.966-1.876-6.194,3.855-5.928,8.882-14.864,14.508-27.114,1.192-2.228,3.966-3.068,6.194-1.876,7.071,1.725,18.388,8.713,29.979,16.041,2.228,1.192,3.068,3.966,1.876,6.194-7.162,12.744-11.517,21.016-14.508,27.114-1.192,2.229-3.966,3.068-6.194,1.876Z" style="fill:#fff; opacity:.2;"></path><g style="opacity:.1;"><path d="M221.433,268.103c-.442-.627-1.174-.97-1.876-1.278-4.842-2.118-10.28-4.14-12.84-8.764-1.219-2.201-5.207-3.401-5.269-5.915-.158-6.34,5.371-14.08,9.041-19.252,.441-.622,.918-1.25,1.099-1.991,.182-.741-.019-1.639-.678-2.023-.659-.384-2.915-.038-2.845,.722-4.043,6.853-7.585,14.001-10.587,21.37-.887,2.176-1.723,4.668-.742,6.804,.761,1.656,2.436,2.668,4.03,3.551,5.955,3.298,12.12,6.216,18.445,8.73,.662,.263,1.458,.51,2.044,.105,.631-.435,.62-1.432,.178-2.059Z" style="fill:#fff;"></path></g><g style="opacity:.1;"><path d="M229.355,240.626c1.168,.931,2.652,1.354,3.968,2.06,1.317,.706,2.569,1.9,2.588,3.394,.016,1.26-.837,2.337-1.557,3.371-1.187,1.706-2.111,3.594-2.734,5.577-.349,1.109,1.026,1.971,1.884,1.186,1.536-1.405,2.741-3.247,3.874-5.024,.726-1.139,1.462-2.299,1.828-3.6,.366-1.3,.316-2.785-.45-3.897-.739-1.072-2.002-1.634-3.201-2.145-1.673-.713-3.346-1.425-5.02-2.138-.382-.163-.825-.324-1.195-.136-.37,.188-.374,.894,.04,.916" style="fill:#fff;"></path></g></g><g><path d="M231.956,287.793c2.274-4.033,4.513-7.891,6.701-11.5,.379-.624,.756-1.241,1.131-1.85,2.07-3.357,4.091-6.473,6.05-9.284,1.032-1.682,3.094-2.115,4.605-.966,3.967,3.603,10.009,8.407,18.39,13.977,1.511,1.149,1.9,3.444,.868,5.126-1.792,5.517-7.705,13.981-13.882,22.634-1.032,1.682-3.094,2.115-4.605,.967-8.617-6.844-14.233-11.051-18.39-13.977-1.511-1.149-1.9-3.444-.868-5.127Z" style="fill:#fff; opacity:.2;"></path><g style="opacity:.1;"><path d="M237.846,287.135c.486-.3,.79-.857,1.066-1.393,1.902-3.697,3.781-7.879,7.309-9.53,1.679-.786,2.854-3.878,4.669-3.71,4.576,.423,9.718,5.525,13.156,8.914,.413,.408,.828,.844,1.347,1.054,.519,.21,1.181,.127,1.509-.368,.328-.495,.254-2.332-.298-2.342-4.618-3.834-9.489-7.292-14.559-10.336-1.498-.899-3.227-1.786-4.84-1.185-1.252,.466-2.11,1.721-2.87,2.922-2.838,4.486-5.419,9.174-7.721,14.025-.241,.508-.48,1.124-.235,1.629,.264,.544,.983,.621,1.468,.321Z" style="fill:#fff;"></path></g><g style="opacity:.1;"><path d="M257.01,295.865c-.761,.855-1.181,2.008-1.792,3.002-.611,.994-1.568,1.894-2.645,1.78-.908-.097-1.617-.874-2.306-1.54-1.136-1.099-2.423-2.003-3.802-2.675-.771-.376-1.499,.652-1.001,1.407,.892,1.353,2.124,2.478,3.315,3.54,.763,.68,1.541,1.37,2.449,1.777,.907,.406,1.98,.495,2.84-.023,.83-.499,1.332-1.463,1.793-2.379,.643-1.279,1.286-2.558,1.93-3.837,.147-.292,.298-.633,.191-.946-.106-.313-.614-.378-.662-.048" style="fill:#fff;"></path></g></g><g><path d="M195.224,330.502c-2.576-5.203-4.986-10.25-7.157-15.072-.376-.834-.744-1.662-1.106-2.483-1.991-4.522-3.753-8.829-5.224-12.86-1.002-2.261,.294-4.786,2.896-5.639,7.492-1.84,18.132-5.108,31.659-10.384,2.602-.853,5.524,.287,6.527,2.548,4.665,5.692,9.084,17.845,13.487,30.414,1.002,2.261-.294,4.786-2.896,5.639-15.166,4.665-24.766,7.878-31.659,10.385-2.602,.853-5.524-.287-6.527-2.548Z" style="fill:#fff; opacity:.2;"></path><g style="opacity:.1;"><path d="M199.579,323.683c.082-.729-.282-1.437-.647-2.101-2.519-4.572-5.605-9.45-4.412-14.39,.568-2.351-1.899-5.725-.14-7.574,4.437-4.662,14.633-6.753,21.425-8.167,.817-.17,1.667-.322,2.353-.741s1.165-1.191,.891-1.883c-.274-.691-2.408-1.862-2.897-1.271-8.316,2.387-16.426,5.304-24.243,8.718-2.309,1.008-4.804,2.275-5.523,4.43-.558,1.671,.112,3.453,.808,5.092,2.598,6.122,5.646,12.102,9.119,17.893,.363,.606,.85,1.284,1.632,1.362,.841,.084,1.55-.64,1.633-1.37Z" style="fill:#fff;"></path></g><g style="opacity:.1;"><path d="M225.996,308.892c.305,1.406,1.24,2.643,1.831,3.98s.777,2.985-.283,4.072c-.895,.917-2.384,1.155-3.73,1.447-2.221,.481-4.353,1.259-6.303,2.293-1.091,.578-.563,2.065,.719,2.04,2.296-.045,4.629-.611,6.856-1.178,1.427-.363,2.878-.735,4.121-1.44,1.243-.705,2.271-1.805,2.432-3.088,.155-1.237-.495-2.436-1.129-3.558-.884-1.566-1.769-3.132-2.653-4.698-.202-.357-.456-.753-.9-.851s-.957,.408-.627,.684" style="fill:#fff;"></path></g></g><g><path d="M266.517,356.629c-4.991,1.241-9.82,2.376-14.419,3.358-.796,.17-1.584,.335-2.366,.496-4.307,.885-8.393,1.624-12.195,2.176-2.154,.448-4.264-.935-4.712-3.089-.736-6.111-2.369-14.887-5.454-26.21-.448-2.154,.935-4.264,3.089-4.712,5.685-2.797,17.147-4.451,28.98-6.03,2.154-.448,4.264,.935,4.712,3.089,2.335,12.511,4.046,20.468,5.454,26.21,.448,2.154-.935,4.264-3.089,4.712Z" style="fill:#fff; opacity:.2;"></path><g style="opacity:.1;"><path d="M260.923,352.229c-.645-.172-1.326,.008-1.967,.195-4.417,1.29-9.178,2.976-13.47,1.318-2.043-.789-5.376,.637-6.822-1.008-3.646-4.146-4.276-12.402-4.714-17.906-.053-.662-.085-1.347-.377-1.943-.292-.596-.928-1.084-1.583-.972-.655,.111-1.968,1.603-1.497,2.071,1.127,6.834,2.754,13.586,4.864,20.184,.623,1.949,1.456,4.08,3.304,4.958,1.433,.681,3.116,.421,4.674,.121,5.819-1.123,11.565-2.617,17.194-4.471,.589-.194,1.258-.474,1.424-1.071,.179-.643-.386-1.303-1.031-1.475Z" style="fill:#fff;"></path></g><g style="opacity:.1;"><path d="M250.868,329.455c1.3-.03,2.527-.577,3.8-.841s2.777-.166,3.624,.821c.714,.833,.746,2.029,.843,3.121,.16,1.802,.598,3.579,1.288,5.251,.386,.935,1.786,.743,1.921-.26,.241-1.796,.017-3.699-.219-5.518-.151-1.166-.308-2.352-.789-3.425s-1.344-2.036-2.477-2.351c-1.093-.303-2.25,.027-3.335,.355-1.515,.459-3.031,.917-4.546,1.376-.346,.105-.732,.244-.874,.576-.142,.332,.249,.806,.538,.59" style="fill:#fff;"></path></g></g><g><path d="M214.705,374.565c-4.008-1.527-7.856-3.049-11.472-4.566-.626-.263-1.245-.525-1.856-.787-3.371-1.445-6.52-2.884-9.387-4.316-1.688-.719-2.475-2.67-1.756-4.359,2.406-4.535,5.466-11.322,8.745-20.544,.719-1.689,2.67-2.475,4.359-1.756,5.225,.791,13.86,5.117,22.715,9.669,1.689,.719,2.475,2.67,1.756,4.359-4.358,9.678-6.975,15.941-8.745,20.544-.719,1.688-2.67,2.475-4.359,1.756Z" style="fill:#fff; opacity:.2;"></path><g style="opacity:.1;"><path d="M212.969,368.889c-.36-.425-.912-.626-1.439-.803-3.638-1.22-7.701-2.332-9.851-5.511-1.023-1.513-3.985-2.124-4.192-3.939-.523-4.575,2.977-10.529,5.297-14.506,.279-.478,.583-.963,.667-1.51s-.119-1.184-.621-1.419c-.501-.235-2.11,.16-2.011,.705-2.483,5.216-4.583,10.614-6.279,16.137-.501,1.631-.945,3.487-.098,4.969,.657,1.149,1.933,1.772,3.143,2.308,4.519,2.002,9.166,3.714,13.903,5.125,.496,.148,1.087,.275,1.485-.056,.429-.355,.356-1.076-.003-1.5Z" style="fill:#fff;"></path></g><g style="opacity:.1;"><path d="M216.927,348.506c.905,.598,2.005,.808,3.003,1.234,.998,.426,1.981,1.209,2.09,2.288,.093,.91-.455,1.744-.909,2.539-.749,1.31-1.295,2.735-1.618,4.209-.181,.824,.869,1.359,1.439,.737,1.02-1.115,1.773-2.525,2.478-3.883,.452-.871,.909-1.757,1.09-2.721,.181-.964,.049-2.034-.577-2.789-.604-.728-1.553-1.053-2.453-1.345-1.256-.407-2.512-.815-3.768-1.222-.286-.093-.618-.181-.873-.022s-.213,.671,.088,.66" style="fill:#fff;"></path></g></g><path d="M274.687,228.443c4.969,3.875-.092,12.495-5.743,8.544-2.562-1.942-2.715-6.242-.323-8.267-2.41,2.945-.658,8.418,3.346,8.254,3.966-.22,5.365-5.766,2.719-8.531h0Z" style="fill:#fff;"></path><path d="M262.01,224.335c3.655,2.668-.035,8.83-4.032,5.983-1.806-1.374-1.876-4.454-.132-5.793-1.509,2.032-.34,5.606,2.289,5.509,2.605-.155,3.547-3.778,1.874-5.699h0Z" style="fill:#fff;"></path><path d="M171.743,265.62c35.584-.664,75.146-.648,110.754,0-35.615,.648-75.162,.665-110.754,0h0Z" style="fill:#fff;"></path></g></g><g id="freepik--Fries--inject-8"><g><g><polygon points="304.472 260.346 309.461 310.761 320.227 309.36 314.075 258.791 304.472 260.346" style="fill:#ff9750;"></polygon><polygon points="304.472 260.346 309.461 310.761 320.227 309.36 314.075 258.791 304.472 260.346" style="opacity:.3;"></polygon></g><g><polygon points="339.78 314.933 338.302 263.057 349.137 262.361 352.824 313.169 339.78 314.933" style="fill:#ff9750;"></polygon><polygon points="339.78 314.933 338.302 263.057 349.137 262.361 352.824 313.169 339.78 314.933" style="opacity:.3;"></polygon></g><g><polygon points="388.147 269.249 379.621 320.441 368.855 319.04 375.007 268.471 388.147 269.249" style="fill:#ff9750;"></polygon><polygon points="388.147 269.249 379.621 320.441 368.855 319.04 375.007 268.471 388.147 269.249" style="opacity:.3;"></polygon></g><g><path d="M307.943,349.697c-.626-3.078-17.776-59.128-17.776-59.128l10.726-3.858,15.905,56.286-8.855,6.7Z" style="fill:#ff9750;"></path><path d="M302.047,321.144c.021-3.141-4.177-44.941-4.177-44.941l11.291-1.566,4.582,44.547-11.696,1.96Z" style="fill:#fdad6d;"></path><path d="M328.977,316.532c.021-3.141-4.177-44.941-4.177-44.941l11.291-1.566,4.582,44.547-11.696,1.96Z" style="fill:#ff9750;"></path><path d="M355.29,320.461c.021-3.141-5.216-61.521-5.216-61.521l11.291-1.566,3.97,58.355-10.045,4.732Z" style="fill:#ff9750;"></path><path d="M368.442,343.728c.728-3.056,8.763-61.117,8.763-61.117l11.354,1.015-9.264,57.752-10.853,2.35Z" style="fill:#ff9750;"></path><path d="M347.987,319.033c.021-3.141-.804-51.419-.804-51.419l11.291-1.566,1.21,51.026-11.697,1.96Z" style="fill:#fdad6d;"></path><path d="M333.216,326.05c.295-3.127-.25-45.134-.25-45.134l11.385-.578,.688,44.777-11.823,.934Z" style="fill:#fdad6d;"></path><path d="M317.325,318.777c.021-3.141-3.581-61.403-3.581-61.403l12.908,2.798,2.661,55.749-11.988,2.857Z" style="fill:#fdad6d;"></path><path d="M363.209,320.812c.267-2.55,1.011-45.004,1.011-45.004l11.221-1.864-2.266,45.5-9.966,1.368Z" style="fill:#fdad6d;"></path><path d="M293.652,305.322c.418-.018,24.953-3.185,24.953-3.185l4.866,10.427,43.693-1.864,5.695-10.043h12.969l-1.373,5.953-15.129,11.594s-31.204-.158-31.023,0c.181,.158-19.698,1.711-19.698,1.711,0,0-6.109-6.969-6.523-6.746-.414,.223-18.074-4.068-18.074-4.068l-.356-3.78Z" style="opacity:.3;"></path><polygon points="301.734 391.07 293.652 305.322 314.468 304.449 320.739 313.85 369.172 312.099 373.784 301.961 390.289 301.269 383.14 391.834 301.734 391.07" style="fill:#D2D6EB;"></polygon></g><path d="M297.87,352.051s47.045-24.177,52.204-17.482,39.2-18.037,39.2-18.037l-2.809,33.165s-25.535,18.162-33.033,14.629c-7.499-3.534-4.197-6.613-10.218-4.701s-42.492,20.715-42.526,20.346c-.035-.369-2.818-27.92-2.818-27.92Z" style="fill:#fff; opacity:.3;"></path></g></g><g id="freepik--Soda_2--inject-8"><g><path d="M462.463,430.851c0,3.881-11.489,7.027-25.662,7.027s-25.662-3.146-25.662-7.027,11.489-7.026,25.662-7.026,25.662,3.146,25.662,7.026Z" style="fill:#263238;"></path><path d="M462.463,430.851c0,3.881-11.489,7.027-25.662,7.027s-25.662-3.146-25.662-7.027,11.489-7.026,25.662-7.026,25.662,3.146,25.662,7.026Z" style="fill:#fff; opacity:.6;"></path><g><path d="M441.484,435.136c.013,.054,.026,.085,.039,.071,.026-.026,.007-.049-.039-.071Z" style="fill:#263238;"></path><path d="M432.037,435.207c.013,.014,.027-.017,.039-.071-.046,.022-.065,.046-.039,.071Z" style="fill:#263238;"></path><path d="M473.544,337.357c-.751-5.259-5.634-10.517-6.198-10.705l-30.566,3.577-30.566-3.577c-.563,.188-5.446,5.447-6.198,10.705-.673,4.71-.14,66.214-.022,79.003,.039,4.173,1.791,8.245,5.093,10.797,1.514,1.171,3.475,2.18,6.01,2.791v-.207s12.074,5.175,21.014,5.136h9.337c8.939,.039,21.014-4.026,21.014-4.026v-.903c2.536-.61,4.496-1.62,6.01-2.791,3.301-2.553,5.054-6.624,5.093-10.797,.118-12.789,.651-74.293-.022-79.003Z" style="fill:#263238;"></path><path d="M473.544,337.357c-.751-5.259-5.634-10.517-6.198-10.705l-30.566,3.577-30.566-3.577c-.563,.188-5.446,5.447-6.198,10.705-.673,4.71-.14,66.214-.022,79.003,.039,4.173,1.791,8.245,5.093,10.797,1.514,1.171,3.475,2.18,6.01,2.791v-.207s12.074,5.175,21.014,5.136h9.337c8.939,.039,21.014-4.026,21.014-4.026v-.903c2.536-.61,4.496-1.62,6.01-2.791,3.301-2.553,5.054-6.624,5.093-10.797,.118-12.789,.651-74.293-.022-79.003Z" style="fill:#fff; opacity:.6;"></path><g style="opacity:.6;"><path d="M441.484,435.136c.013,.054,.026,.085,.039,.071,.026-.026,.007-.049-.039-.071Z" style="fill:#fff;"></path><path d="M432.037,435.207c.013,.014,.027-.017,.039-.071-.046,.022-.065,.046-.039,.071Z" style="fill:#fff;"></path></g></g><g><ellipse cx="436.035" cy="320.509" rx="33.06" ry="14.649" style="fill:#263238;"></ellipse><ellipse cx="436.035" cy="320.509" rx="33.06" ry="14.649" style="fill:#fff; opacity:.8;"></ellipse><path d="M469.095,324.07c0,8.09-14.801,14.649-33.06,14.649s-33.06-6.559-33.06-14.649c0-1.011-.398-3.354,.043-4.308,3.083-6.675,17.041-10.341,33.017-10.341s29.977,3.672,33.06,10.347c.44,.954,0,3.291,0,4.302Z" style="fill:#263238;"></path><path d="M469.095,324.07c0,8.09-14.801,14.649-33.06,14.649s-33.06-6.559-33.06-14.649c0-1.011-.398-3.354,.043-4.308,3.083-6.675,17.041-10.341,33.017-10.341s29.977,3.672,33.06,10.347c.44,.954,0,3.291,0,4.302Z" style="fill:#fff; opacity:.8;"></path><ellipse cx="436.035" cy="320.324" rx="30.241" ry="12.337" style="fill:#263238;"></ellipse><ellipse cx="436.035" cy="320.324" rx="30.241" ry="12.337" style="fill:#fff; opacity:.6;"></ellipse><g style="opacity:.3;"><path d="M435.817,311.712c15.146,0,27.654,4.547,29.86,10.474,.227-.609,.381-1.228,.381-1.862,0-6.814-13.539-12.337-30.241-12.337s-30.241,5.523-30.241,12.337c0,.635,.154,1.253,.381,1.862,2.206-5.927,14.715-10.474,29.86-10.474Z"></path></g></g><path d="M401.635,332.661s11.482,10.323,35.146,11.115c24.249,.812,35.146-11.115,35.146-11.115,0,0,2.063,4.431,1.952,7.254-.085,2.151-.014,49.894-.014,73.985,0,9.925-4.498,14.105-11.4,16.794-17.117,4.905-34.225,4.307-51.324-.32-6.738-1.031-11.456-6.432-11.456-13.298v-79.718s.388-2.121,1.952-4.696Z" style="fill:#D2D6EB;"></path><g style="opacity:.4;"><path d="M432.771,350.816c-11.815-.786-23.373-4.9-33.088-11.66v25.032c40.267,0,36.095,43.394,52.262,35.6,7.862-3.791,15.22-8.597,21.904-14.209-.015-21.792-.029-44.205,.029-45.664,.004-.09-.001-.185-.002-.277-.085,.057-.173,.116-.257,.172-11.909,8.023-26.519,11.96-40.847,11.006Z" style="fill:#fff;"></path></g><g style="opacity:.3;"><path d="M473.195,419.75c-23.663,7.685-49.401,8.66-73.145,.507,1.215,5.303,5.434,9.251,11.089,10.116,17.099,4.627,34.207,5.225,51.324,.32,5.353-2.085,9.248-5.08,10.733-10.943Z"></path></g><g><path d="M442.18,313.075c-4.665-.95-9.14-.559-11.41,.782-2.269,1.341-7.501,4.136-7.753,7.433-.252,3.298,5.802,4.151,6.178,4.192,3.593,.391,6.934,.28,10.275-.782,3.341-1.062,5.988-4.303,7.69-6.651,1.702-2.347-.315-4.024-4.98-4.974Zm-9.708,10.02c-3.364,0-6.09-1.055-6.09-2.356s2.727-2.356,6.09-2.356,6.09,1.055,6.09,2.356-2.727,2.356-6.09,2.356Zm10.851-6.054c-1.04,.997-3.769-.023-5.586-.446-1.414-.33-4.952-.062-3.774-1.606,1.157-1.517,5.122-.819,6.538-.54,1.416,.279,4.488,.996,2.822,2.593Z" style="fill:#263238;"></path><path d="M442.18,313.075c-4.665-.95-9.14-.559-11.41,.782-2.269,1.341-7.501,4.136-7.753,7.433-.252,3.298,5.802,4.151,6.178,4.192,3.593,.391,6.934,.28,10.275-.782,3.341-1.062,5.988-4.303,7.69-6.651,1.702-2.347-.315-4.024-4.98-4.974Zm-9.708,10.02c-3.364,0-6.09-1.055-6.09-2.356s2.727-2.356,6.09-2.356,6.09,1.055,6.09,2.356-2.727,2.356-6.09,2.356Zm10.851-6.054c-1.04,.997-3.769-.023-5.586-.446-1.414-.33-4.952-.062-3.774-1.606,1.157-1.517,5.122-.819,6.538-.54,1.416,.279,4.488,.996,2.822,2.593Z" style="fill:#fff; opacity:.8;"></path></g><path d="M424.288,392.855c-.606-12.205-8.259-21.773-17.093-21.371-2.963,.135-5.208,.967-7.491,3.015l.031,37.354c2.779,2.558,6.123,3.991,9.655,3.831,8.834-.403,15.504-10.624,14.897-22.829Z" style="fill:#fff; opacity:.4;"></path></g></g><g id="freepik--Burger--inject-8"><g><g><path d="M236.809,434.585c0-18.6,35.002-26.258,75.579-26.258s71.364,7.293,71.364,26.258c0,23.252-32.327,29.245-73.472,29.245-40.577,0-73.472-5.993-73.472-29.245Z" style="fill:#ff9750;"></path><path d="M362.848,442.439c7.147-2.651,13.673-9.653,15.95-15.973,2.277-6.319-.625-14.127-7.641-17.018l-127.538,11.466c-5.91,3.116-5.597,9.688-.985,14.104,4.613,4.416,15.523,10.333,22.366,11.42,0,0,20.672,5.349,51.815,3.704,34.577-1.825,46.033-7.704,46.033-7.704Z" style="fill:#fdad6d;"></path><path d="M362.848,433.295c7.147-2.651,13.673-9.654,15.95-15.973,2.277-6.319-.625-14.127-7.641-17.018l-127.538,11.466c-5.91,3.116-5.597,9.688-.985,14.104,4.613,4.416,15.523,10.333,22.366,11.421,0,0,20.672,5.348,51.815,3.704,34.577-1.825,46.033-7.704,46.033-7.704Z" style="fill:#a24e3f;"></path><path d="M272.299,423.616c1.47,2.731,5.083,3.366,8.204,3.6,3.121,.234,6.699,.619,8.473,3.167,1.114,1.601,1.201,3.675,1.136,5.617-.065,1.942-.23,3.957,.491,5.765,.721,1.808,2.665,3.322,4.567,2.83,1.938-.501,2.851-2.721,3.02-4.694,.169-1.973-.097-4.048,.708-5.861,.805-1.813,3.342-3.074,4.833-1.752,1.488,1.319,.722,3.956,2.006,5.471,1.401,1.652,4.259,.815,5.688-.815,1.428-1.63,2.094-3.806,3.522-5.435,2.347-2.678,6.21-3.358,9.757-3.873,2.801-.407,6.177-.603,7.917,1.605,1.253,1.59,1.113,3.802,1.259,5.812,.146,2.01,.981,4.353,2.966,4.812,2.029,.469,3.911-1.442,4.452-3.431,.541-1.989,.23-4.106,.526-6.144,.296-2.039,1.544-4.237,3.61-4.504,4.446-.575,6.165,7.638,10.605,7.022,2.528-.351,3.55-3.337,4.165-5.787,.614-2.449,8.505-13.465,11.055-13.349l-98.959,9.943Z" style="fill:#d7504d;"></path><path d="M390.834,399.943c-2.639-6.323-12.087-8.753-18.089-13.128-5.069-3.695-11.579-7.371-18.173-6.423l-107.972,12.459c-5.265,2.407-10.774,5.007-13.878,9.338-3.104,4.331-2.648,10.926,2.528,13.467,5.023,2.465,11.723,.126,17.049,2.084,5.049,1.856,7.374,6.988,12.149,9.307,4.358,2.117,9.827,1.464,14.658,.297,4.831-1.167,9.686-2.804,14.694-2.461,7.595,.52,14.286,5.532,21.883,5.039,8.625-.56,15.264-8.069,23.908-7.811,3.01,.09,5.848,1.141,8.776,1.738,2.928,.598,6.309,.66,8.637-.959,1.879-1.307,2.672-3.434,4.321-4.948,3.079-2.829,8.211-2.888,12.749-3.076,4.538-.188,7.809-2.639,11.623-4.729,5.29-2.898,6.219-7.6,5.137-10.192Z" style="fill:#D2D6EB;"></path><g style="opacity:.3;"><path d="M390.834,399.943c-2.639-6.323-12.087-8.753-18.089-13.128-5.069-3.695-11.579-7.371-18.173-6.423l-107.972,12.459c-5.265,2.407-10.774,5.007-13.878,9.338-3.104,4.331-2.648,10.926,2.528,13.467,5.023,2.465,11.723,.126,17.049,2.084,5.049,1.856,7.374,6.988,12.149,9.307,4.358,2.117,9.827,1.464,14.658,.297,4.831-1.167,9.686-2.804,14.694-2.461,7.595,.52,14.286,5.532,21.883,5.039,8.625-.56,15.264-8.069,23.908-7.811,3.01,.09,5.848,1.141,8.776,1.738,2.928,.598,6.309,.66,8.637-.959,1.879-1.307,2.672-3.434,4.321-4.948,3.079-2.829,8.211-2.888,12.749-3.076,4.538-.188,7.809-2.639,11.623-4.729,5.29-2.898,6.219-7.6,5.137-10.192Z"></path></g><path d="M383.962,390.067c0,18.6-35.002,26.258-75.579,26.258s-71.365-7.294-71.365-26.258c0-23.252,32.895-42.101,73.472-42.101s73.472,18.849,73.472,42.101Z" style="fill:#ff9750;"></path><g><path d="M278.554,366.163c-.119,2.306-2.247,3.465-4.241,2.285,.11-2.314,2.25-3.454,4.241-2.285h0Z" style="fill:#fff;"></path><path d="M294.735,385.951c2.061-1.014,4.084,.284,3.991,2.588-2.064,1.025-4.075-.292-3.991-2.588h0Z" style="fill:#fff;"></path><path d="M305.378,370.575c2.061-1.014,4.084,.284,3.991,2.587-2.064,1.025-4.075-.292-3.991-2.587h0Z" style="fill:#fff;"></path><path d="M357.32,379.727c1.8,1.313,1.5,3.476-.607,4.225-1.811-1.311-1.49-3.471,.607-4.225h0Z" style="fill:#fff;"></path><path d="M258.342,383.267c1.8,1.313,1.5,3.476-.607,4.225-1.811-1.311-1.49-3.472,.607-4.225h0Z" style="fill:#fff;"></path><path d="M330.139,379.727c1.8,1.313,1.5,3.476-.607,4.225-1.811-1.311-1.49-3.471,.607-4.225h0Z" style="fill:#fff;"></path><path d="M327.538,364.438c1.845-1.417,4.146-.566,4.595,1.725-1.845,1.429-4.139,.556-4.595-1.725h0Z" style="fill:#fff;"></path></g></g><path d="M326.259,353.979c-.867,0,22.616,32.786,16.554,42.812-6.062,10.026-26.813,14.922-26.813,14.922,0,0,47.097-.466,59.921-13.523s-16.787-44.242-49.662-44.211Z" style="opacity:.2;"></path><path d="M244.189,398.279s-8.279-11.288,4.43-25.116,50.594-21.048,63.418-20.815c0,0-59.221,18.652-67.848,45.931Z" style="fill:#fff; opacity:.2;"></path></g></g><g id="freepik--Hot_dog--inject-8"><g><path d="M37.357,368.473s-17.787-31.848,34.05-39.331c36.816-5.315,48.026-16.34,56.082-25.546,6.453-7.374,15.56-12.034,25.345-12.55,10.113-.533,20.054,3.26,15.006,22.584-7.156,27.396-34.259,45.969-54.08,52.772-19.821,6.804-62.802,16.181-76.404,2.07Z" style="fill:#ff9750;"></path><path d="M40.913,346.547s3.227-8.882,15.407-11.687c12.179-2.805,42.519-7.765,55.118-14.692,12.599-6.927,29.012-22.997,29.012-22.997,0,0-15.058,24.025-34.503,31.688-19.445,7.663-40.882,7.812-50.981,11.029-10.099,3.217-14.054,6.659-14.054,6.659Z" style="fill:#fff; opacity:.3;"></path><path d="M41.627,353.974s1.294-9.734,8.219-12.135c6.925-2.402,10.238,1.015,12.709-.384,2.471-1.399,4.231-6.915,9.068-6.802,4.837,.114,12.225,4.605,12.525,4.001,.3-.604,1.056-8.306,8.803-8.507,3.704-.096,7.504,6.562,8.049,5.233,1.159-2.825,2.249-5.598,5.175-10.71,2.002-3.498,9.887-1.044,12.935,1.115,.944,.669,2.517-10.254,7.751-13.174,3.491-1.948,7.826,1.499,7.826,1.499,0,0-2.473-9.932,2.252-11.594,3.893-1.369,6.669,3.215,6.669,3.215,0,0-2.039-7.789,3.157-7.938,2.871-.082,3.23,1.563,3.23,1.563l.814,8.452-57.458,38.041-48.549,15.283-3.176-7.158Z" style="fill:#D2D6EB;"></path><g><path d="M174.444,285.07c-10.234-2.176-17.71,6.368-24.18,13.622-19.536,21.903-45.339,39.322-74.33,43.891-7.818,1.232-15.8,1.531-23.471,3.478-7.671,1.947-15.256,5.84-19.502,12.519-.236,.371-.458,.752-.667,1.141-4.299,8.025-1.296,18.054,6.319,23.044l3.204,2.099c2.505,1.641,5.379,2.628,8.361,2.9,22.655,2.065,45.775-2.48,66.5-11.919,22.175-10.1,41.659-25.661,57.603-44.088,8.111-9.374,15.724-20.454,12.799-33.653-1.416-6.389-6.234-11.672-12.635-13.033Z" style="fill:#b97964;"></path><g style="opacity:.2;"><path d="M174.444,285.07c-10.234-2.176-17.71,6.368-24.18,13.622-19.536,21.903-45.339,39.322-74.33,43.891-7.818,1.232-15.8,1.531-23.471,3.478-7.671,1.947-15.256,5.84-19.502,12.519-.236,.371-.458,.752-.667,1.141-4.299,8.025-1.296,18.054,6.319,23.044l3.204,2.099c2.505,1.641,5.379,2.628,8.361,2.9,22.655,2.065,45.775-2.48,66.5-11.919,22.175-10.1,41.659-25.661,57.603-44.088,8.111-9.374,15.724-20.454,12.799-33.653-1.416-6.389-6.234-11.672-12.635-13.033Z" style="fill:#b97964;"></path></g></g><path d="M65.636,353.444c-.095-.274-.149-.571-.25-.84-.217-.581-.023,1.036,.006-.018,.001-.048-.049-.618,.015-.701l-.075,.499c.029-.174,.066-.345,.112-.515,.072-.284,.16-.563,.267-.836-.345,.885-.109,.322,.004,.128,.547-.938-.459,.376,.011-.083,.202-.197,1.119-.864,.293-.36,.201-.123,.443-.238,.631-.371-.58,.411-.395,.116-.06,.035,.025-.006,1.187-.326,.475-.16-.684,.159,.441-.003,.499-.008,.766-.063,.135-.024-.101-.066,.298,.053,.593,.171,.889,.217,.591,.091-.79-.509,.101,.053,.288,.182,.565,.362,.845,.554-.907-.623,.31,.323,.529,.526,.38,.353,.752,.715,1.137,1.063,1.01,.914,2.084,1.812,3.319,2.402,3.437,1.641,7.093,1.049,9.987-1.366,1.906-1.59,3.134-3.792,4.123-6.026,.423-.956,.857-1.912,1.398-2.808,.177-.293,.365-.576,.563-.854-.105,.148-.623,.652-.071,.14,.016-.015,.386-.452,.467-.455-.496,.36-.541,.402-.134,.128l.281-.16-.476,.188c.234-.086,.474-.153,.719-.2-.608,.111-.197-.106,.018,.077l-.387-.063,.402,.089c.088,.03,1.329,.512,.495,.124,.511,.238,.999,.529,1.468,.84,.29,.192,.565,.404,.849,.605,.251,.189,.223,.166-.084-.067,.219,.173,.438,.345,.657,.517,2.632,2.063,5.196,3.767,8.621,4.061,3.25,.279,6.614-1.259,8.282-4.107,1.576-2.69,1.22-5.642,.792-8.572-.028-.195-.032-.494-.098-.666,.336,.87,.041,.464,.019,.038-.025-.487-.042-.962-.041-1.449,.003-.921,.017,.294-.038,.275-.09-.03,.569-1.485-.027-.073,.085-.201,.496-.695-.138,.136,.487-.639-.636,.269,.094-.055-.991,.44-.311,.144-.031,.051l.157-.042c.5-.096,.428-.09-.216,.018,.042-.05,.674-.011,.672-.011,.902-.023-.133-.071-.188-.058,.227-.054,1.734,.516,1.004,.209,.716,.301,1.393,.712,2.055,1.112,2.738,1.655,5.333,3.197,8.582,3.53,3.413,.35,6.708-1.09,8.662-3.923,1.743-2.526,1.983-5.717,1.708-8.683-.065-.7-.145-1.4-.186-2.102-.022-.388-.035-.776-.028-1.165,.005-.255,.143-1.239-.028-.306,.041-.226,.091-.45,.15-.671,.01-.037,.344-1.118,.11-.435-.226,.66,.181-.333,.215-.393,.168-.301,.36-.586,.555-.87-.103,.149-.61,.656-.052,.108,.246-.241,.492-.483,.738-.725,.753-.741-.516,.257,.047-.029,.351-.178,.698-.406,1.043-.6-.141,.079-.898,.296-.123,.061,.333-.101,.655-.191,.994-.271,.971-.229-.538-.099,.174,.003,.44,.063,.93-.004,1.379,.027,.385,.026,.767,.07,1.15,.113-1.171-.131,2.282,.302,1.381,.184,.766,.1,1.534,.206,2.307,.234,1.5,.054,3.091-.137,4.513-.626,3.948-1.358,6.421-4.66,6.469-8.872,.016-1.413-.231-2.852-.314-4.263-.035-.603-.175-.06-.062,.211-.025-.061,.178-.907,.241-.94l-.204,.502c.211-.337,.206-.352-.014-.046-.149,.24-.357,.419-.624,.537,.171-.115,.353-.209,.546-.281,2.159-.958,2.83-4.271,1.614-6.157-1.441-2.235-3.847-2.64-6.157-1.614-3.049,1.354-4.365,4.994-4.344,8.117,.009,1.294,.188,2.648,.319,3.935,.058,.576-.242,.278,.052-.001l-.092,.386c.193-.375,.221-.437,.084-.186-.379,.549,.768-.751,.027-.018l-.234,.215c.495-.371,.535-.423,.121-.156-.609-.008-.067,.241,.18-.047-.146,.171-.759,.214-.967,.276-.422,.126-.373,.3,.19-.006-.187,.101-.627,.04-.843,.042-.632,.005-1.257-.061-1.885-.123-1.51-.15,.857,.121-.646-.083-.704-.095-1.409-.2-2.116-.272-3.081-.314-6.252,.285-8.842,2.044-2.573,1.748-4.454,4.185-5.454,7.134-1.034,3.049-.26,6.027-.26,9.125,0,.365-.021,.726-.051,1.09,.016-.198,.218-.896-.011-.119-.006,.021-.306,1.164-.097,.484,.199-.646-.22,.354-.243,.404,.324-.724,.168-.341,.039-.102l.356-.255c-.378,.206-.405,.241-.082,.105,.523-.353-.352,.071-.453,.111,.556-.056,.662-.074,.317-.052-.18,.012-.36,.014-.54,.006-1.094,.03,.546,.202-.077,.004-.293-.093-.604-.138-.899-.23-.235-.074-.469-.157-.698-.248,1.059,.422-.21-.155-.352-.233-1.25-.682-2.414-1.507-3.661-2.193-2.892-1.591-6.065-2.411-9.343-1.641-3.141,.738-5.828,3.357-6.398,6.57-.225,1.27-.277,2.482-.133,3.758,.095,.844,.218,1.688,.348,2.527,.13,.84,.013-.083-.021-.201,.099,.347,.089,.781,.104,1.141,.011,.264,0,.528,.006,.792,.022,.913-.028-.303,.052-.284,.123,.028-.613,1.493,.052,.057-.099,.215-.471,.653,.153-.138-.454,.575,.007,.026,.166-.094-.82,.621,.875-.283-.111,.042-.643,.213,.131,.081,.216-.008-.076,.08-.868,.047-1.013-.021l.523,.058c-.222-.046-.441-.102-.657-.17-.257-.057-.602-.343,.068,.049-.601-.352-1.198-.662-1.771-1.064-.227-.159-.449-.326-.671-.492,.637,.477-.087-.074-.241-.195-.792-.623-1.58-1.259-2.406-1.839-2.819-1.981-6.615-3.158-9.995-2.01-2.966,1.007-5.1,3.333-6.515,6.061-.48,.924-.868,1.888-1.306,2.832-.245,.53-.512,1.049-.811,1.551-.15,.252-.332,.489-.477,.743-.189,.267-.129,.196,.18-.212-.145,.177-.296,.348-.454,.513-.155,.161-.33,.303-.485,.463,.906-.937,.05,.145-.154,.036,.132,.071,.886-.207,.039-.062-.337,.076-.204,.06,.398-.049-.517-.018-.446,.008,.214,.079-.049,.043-.627-.2-.613-.172,.583,.259,.654,.276,.212,.05l-.275-.167c-.93-.471,.645,.629-.145-.09-.252-.23-.512-.451-.762-.683-2.601-2.41-5.111-4.39-8.779-4.708-7.717-.67-13.888,7.249-11.339,14.579,.771,2.218,3.117,3.926,5.535,3.143,2.195-.71,3.971-3.155,3.143-5.535h0Z" style="fill:#d7504d;"></path><path d="M54.925,397c-6.821-2.126-11.853-8.134-12.653-15.234-1.175-10.43,3.359-26.301,38.856-31.855,54.61-8.544,56.631-26.589,67.927-36.132,11.295-9.543,41.054-7.938,33.501,20.975-7.552,28.912-35.811,47.301-56.73,54.481-17.363,5.96-51.568,13.792-70.901,7.765Z" style="fill:#ff9750;"></path><path d="M175.086,310.646s10.787,13.827-14.318,45.885c-25.106,32.06-75.721,34.606-95.99,35.394-20.267,.788-22.475-16.135-22.422-16.489-.319,2.17-.299,4.256-.085,6.159,.8,7.1,5.832,13.107,12.653,15.234,19.334,6.027,53.538-1.805,70.902-7.765,20.918-7.18,49.177-25.568,56.729-54.481,3.137-12.008-.17-19.293-5.909-23.038l-1.559-.899h0Z" style="opacity:.2;"></path><g style="opacity:.3;"><path d="M155.431,317.071s-11.326,17.849-27.068,24.712c-15.742,6.863-59.735,9.593-72.96,23.076-7.469,7.614-3.497,14.078-3.497,14.078,1.065-5.304,4.664-9.865,9.098-12.965,4.434-3.1,9.661-4.876,14.925-6.127,10.571-2.513,21.496-3.053,32.265-4.493,10.77-1.44,21.677-3.893,30.824-9.757,9.147-5.864,16.322-15.69,16.603-26.552" style="fill:#fff;"></path></g></g></g><g id="freepik--Doughnut--inject-8"><g><g><path d="M219.77,425.224c0,14.164-5.296,28.256-17.825,37.141-11.218,7.955-28.743,11.468-45.181,11.468-17.399,0-36.077-4.498-47.479-13.294-11.402-8.797-15.527-21.892-15.527-35.315,0-26.846,28.209-48.609,63.006-48.609s63.006,21.763,63.006,48.609Z" style="fill:#fdad6d;"></path><path d="M94.139,420.322c-.849,4.547-.886,9.233-.014,13.775,.891,4.641,2.292,9.126,3.987,4.925,1.643-4.071,3.225-6.767,7.065-3.052,3.839,3.715,.886,16.1,10.337,13.313,9.451-2.786,9.155-15.076,14.767-10.944,5.611,4.132,10.041,10.944,16.243,7.228,6.202-3.715,8.86-11.051,14.176-7.228s3.249,23.638,13.881,22.399c10.632-1.238,3.839-23.531,11.518-21.983s8.86,11.456,15.062,8.979c6.202-2.477,5.611-14.862,8.565-15.79,2.953-.929,2.067,8.979,7.088,6.811,5.021-2.167,10.927-60.684-49.321-62.232-51.573-1.325-67.428,12.061-73.354,43.798Z" style="opacity:.2;"></path><path d="M91.165,417.317c-.89,4.547-.929,9.233-.014,13.775,.934,4.641,2.402,9.126,4.18,4.925,1.722-4.071,3.381-6.767,7.406-3.052,4.025,3.715,.929,16.1,10.836,13.313,9.908-2.787,9.598-15.076,15.481-10.944,5.883,4.132,10.527,10.944,17.029,7.228,6.502-3.715,9.288-11.051,14.861-7.228,5.573,3.823,3.406,23.638,14.552,22.399,11.146-1.238,4.025-23.531,12.075-21.983,8.05,1.548,9.288,11.456,15.79,8.979s5.883-14.861,8.979-15.79c3.096-.929,2.167,8.979,7.431,6.811s11.456-60.684-51.705-62.232c-54.067-1.325-70.689,12.061-76.9,43.798Z" style="fill:#D2D6EB;"></path><ellipse cx="157.926" cy="400.152" rx="19.726" ry="10.578" style="fill:#fdad6d;"></ellipse><path d="M140.593,405.206s1.772-4.649,4.602-5.053c2.829-.405,1.415,7.234,6.507,5.961s3.961-8.488,7.073-8.488,.566,5.234,6.224,6.366c5.659,1.132,3.82-4.425,7.073-3.839,3.254,.586,4.155,3.944,4.155,3.944,0,0,10.195-13.618-17.108-15.469-27.302-1.852-22.669,14.138-18.528,16.578Z" style="fill:#D2D6EB;"></path><path d="M100.778,396.269s-5.932,22.06,38.373,28.919c0,0-27.852,.503-36.89-11.864-7.044-9.64-1.483-17.055-1.483-17.055Z" style="fill:#fff; opacity:.4;"></path><g style="opacity:.1;"><path d="M176.416,383.377c-1.315,1.482-3.81,.88-5.785,.735-10.492-.77-21.158,.937-30.886,4.944-2.348,.967-4.683,2.093-6.544,3.821-1.861,1.728-3.213,4.15-3.146,6.689,.102,3.889,3.425,7.586,.447,11.391-.753,.962-1.794,1.668-2.909,2.165-6.246,2.784-14.157,.565-18.22-4.858-3.733-4.982-3.958-12.32-.538-17.522,3.329-5.064,9.297-7.67,15.074-9.501,10.825-3.43,22.207-5.093,33.561-4.905l11.421,.55c.639,.031,1.275,.117,1.899,.258,0,0,10.059,1.238,5.627,6.234Z" style="fill:#fff;"></path></g><path d="M213.688,449.394c-11.743,12.971-31.57,20.865-55.923,20.705-28.042-.185-49.327-10.232-57.401-19.39,2.279,3.64,5.208,6.966,8.921,9.831,11.402,8.797,30.08,13.294,47.479,13.294,16.438,0,33.963-3.514,45.181-11.468,5.056-3.585,8.915-8.028,11.743-12.971Z" style="opacity:.2;"></path><path d="M181.023,408.451c2.752-1.268,5.503-2.536,8.255-3.804,.639-.294,.847-1.266,.481-1.834-.424-.658-1.15-.796-1.834-.481-2.752,1.268-5.503,2.536-8.255,3.804-.639,.294-.847,1.266-.481,1.834,.425,.659,1.15,.796,1.834,.481h0Z" style="fill:#fff;"></path><path d="M200.261,394.074c2.241,2.04,4.481,4.079,6.722,6.118,.518,.472,1.39,.55,1.895,0,.472-.514,.554-1.391,0-1.895-2.241-2.04-4.481-4.079-6.722-6.118-.518-.472-1.39-.55-1.895,0-.472,.514-.554,1.391,0,1.895h0Z" style="fill:#fff;"></path><path d="M130.395,414.62c2.752-1.268,5.504-2.536,8.255-3.804,.639-.294,.847-1.266,.481-1.834-.425-.659-1.15-.796-1.834-.481-2.752,1.268-5.503,2.536-8.255,3.804-.639,.294-.847,1.266-.481,1.834,.425,.658,1.15,.796,1.834,.481h0Z" style="fill:#fff;"></path><path d="M161.825,420.777c2.752-1.268,5.503-2.536,8.255-3.804,.639-.294,.847-1.266,.481-1.834-.425-.659-1.15-.796-1.834-.481-2.752,1.268-5.503,2.536-8.255,3.804-.639,.294-.847,1.266-.481,1.834,.425,.659,1.15,.796,1.834,.481h0Z" style="fill:#fff;"></path><path d="M135.03,383.591c2.731,1.312,5.461,2.625,8.192,3.937,.631,.303,1.477,.194,1.834-.481,.316-.599,.194-1.509-.481-1.834-2.731-1.312-5.461-2.625-8.192-3.937-.631-.303-1.477-.194-1.834,.481-.316,.599-.194,1.509,.481,1.834h0Z" style="fill:#fff;"></path><path d="M194.321,393.686c-2.752-1.268-5.503-2.536-8.255-3.804-.635-.293-1.473-.201-1.834,.481-.312,.59-.199,1.52,.481,1.834,2.752,1.268,5.504,2.536,8.255,3.804,.635,.293,1.473,.201,1.834-.481,.312-.59,.199-1.52-.481-1.834h0Z" style="fill:#fff;"></path><path d="M201.096,405.111c-2.182-.658-4.348-1.365-6.529-2.023-.671-.202-1.49,.242-1.649,.936-.165,.723,.217,1.432,.936,1.649,2.182,.658,4.348,1.365,6.529,2.023,.671,.202,1.49-.242,1.649-.936,.164-.722-.217-1.432-.936-1.649h0Z" style="fill:#fff;"></path><path d="M154.343,380.194c-2.182-.658-4.348-1.365-6.529-2.023-.671-.202-1.49,.242-1.649,.936-.164,.722,.217,1.432,.936,1.649,2.182,.658,4.348,1.365,6.529,2.023,.671,.202,1.49-.242,1.649-.936,.165-.722-.217-1.432-.936-1.648h0Z" style="fill:#fff;"></path><path d="M181.952,379.882c-2.169,.699-4.353,1.348-6.522,2.047-.666,.215-1.166,.939-.936,1.649,.216,.667,.934,1.166,1.649,.936,2.169-.699,4.353-1.348,6.522-2.047,.666-.215,1.166-.939,.936-1.649-.216-.667-.934-1.166-1.648-.936h0Z" style="fill:#fff;"></path><path d="M119.695,403.951c-2.182-.658-4.348-1.365-6.529-2.023-.671-.202-1.49,.242-1.649,.936-.164,.723,.217,1.432,.936,1.649,2.182,.658,4.348,1.365,6.529,2.023,.671,.202,1.49-.242,1.649-.936,.165-.722-.217-1.432-.936-1.649h0Z" style="fill:#fff;"></path><path d="M169.005,383.937c-2.27,.204-4.543,.355-6.813,.559-.696,.062-1.375,.572-1.34,1.34,.03,.672,.592,1.407,1.34,1.34,2.27-.204,4.543-.355,6.813-.559,.696-.063,1.375-.572,1.34-1.34-.03-.672-.592-1.407-1.34-1.34h0Z" style="fill:#fff;"></path><path d="M152.348,418.37c-2.182-.658-4.348-1.365-6.53-2.023-.671-.202-1.49,.242-1.649,.936-.164,.722,.217,1.432,.936,1.648,2.182,.658,4.348,1.365,6.529,2.023,.671,.202,1.49-.242,1.649-.936,.165-.722-.217-1.432-.936-1.649h0Z" style="fill:#fff;"></path><path d="M190.031,414.478c-2.182-.658-4.348-1.365-6.529-2.023-.671-.202-1.49,.242-1.649,.936-.165,.723,.217,1.432,.936,1.649,2.182,.658,4.348,1.365,6.529,2.023,.671,.202,1.49-.242,1.649-.936,.164-.723-.217-1.432-.936-1.649h0Z" style="fill:#fff;"></path><path d="M197.536,385.46c-2.182-.658-4.348-1.365-6.53-2.023-.671-.202-1.49,.242-1.649,.936-.164,.722,.217,1.432,.936,1.648,2.182,.658,4.348,1.365,6.529,2.023,.671,.202,1.49-.242,1.649-.936,.165-.722-.217-1.432-.936-1.649h0Z" style="fill:#fff;"></path><path d="M121.81,388.42c-2.125,.822-4.269,1.594-6.394,2.416-.652,.252-1.174,.912-.936,1.649,.205,.634,.948,1.207,1.649,.936,2.125-.822,4.269-1.594,6.394-2.416,.652-.252,1.174-.912,.936-1.649-.205-.634-.948-1.207-1.649-.936h0Z" style="fill:#fff;"></path><path d="M128.42,393.654c-.954,2.069-1.955,4.116-2.909,6.186-.293,.635-.201,1.473,.481,1.834,.59,.312,1.52,.199,1.834-.481,.954-2.07,1.955-4.116,2.909-6.186,.293-.635,.201-1.473-.481-1.834-.59-.312-1.52-.199-1.834,.481h0Z" style="fill:#fff;"></path></g><ellipse cx="157.926" cy="400.152" rx="19.726" ry="10.578" style="opacity:.2;"></ellipse></g></g></svg>
